<svg width="1287" height="624" viewBox="0 0 1287 624" fill="none" xmlns="http://www.w3.org/2000/svg">
<path d="M490.921 515.524H801.869M0.471162 -12.6318L0.471133 624M41.9309 -12.6318L41.9309 624M83.3906 -12.6318L83.3906 624M124.85 -12.6318L124.85 624M166.31 -12.6318L166.31 624M207.77 -12.6318L207.77 624M249.23 -12.6318L249.23 624M290.689 -12.6318L290.689 624M332.149 -12.6318L332.149 624M0 598.659H1285.25M373.609 -12.6318L373.609 624M0 559.537H1285.25M415.069 -12.6318L415.069 624M0 520.414H1285.25M456.528 -12.6318V624M0 481.291H1285.25M497.988 -12.6318L497.988 624M0 442.169H1285.25M539.448 -12.6318L539.448 624M0 403.046H1285.25M580.908 -12.6318L580.907 624M0 363.923H1285.25M622.367 -12.6318L622.367 624M0 324.801H1285.25M663.827 -12.6318L663.827 624M0 285.678H1285.25M705.287 -12.6318L705.287 624M0 246.556H1285.25M746.747 -12.6318L746.746 624M0 207.433H1285.25M788.206 -12.6318L788.206 624M0 168.31H1285.25M829.666 -12.6318L829.666 624M0 129.188H1285.25M871.126 -12.6318L871.126 624M0 90.0651H1285.25M912.585 -12.6318L912.585 624M0 50.9425H1285.25M954.045 -12.6318L954.045 624M0 11.8199H1285.25M995.505 -12.6318V624M0 -27.3027L1285.25 -27.3027M1036.96 -12.6318V624M1078.42 -12.6318V624M1119.88 -12.6318V624M1161.34 -12.6318V624M1202.8 -12.6318V624M1244.26 -12.6318V624M1285.72 -12.6318V624" stroke="url(#paint0_radial_30_251)" stroke-width="0.888544"/>
<defs>
<radialGradient id="paint0_radial_30_251" cx="0" cy="0" r="1" gradientUnits="userSpaceOnUse" gradientTransform="translate(642.862 259.697) rotate(90) scale(364.303 719.163)">
<stop stop-color="white" stop-opacity="0.12"/>
<stop offset="0.6" stop-color="white" stop-opacity="0"/>
</radialGradient>
</defs>
</svg>
