<svg width="70" height="18" viewBox="0 0 70 18" fill="none" xmlns="http://www.w3.org/2000/svg">
<path d="M67.9234 11.1522C68.4768 11.063 68.8661 10.9549 69.133 10.8113C69.3973 10.6691 69.5405 10.4924 69.6056 10.2619C69.6717 10.0276 69.6592 9.73257 69.5988 9.35132C69.498 8.71462 69.144 7.88233 68.6481 7.00041C68.1528 6.11963 67.5175 5.19304 66.8597 4.36787C66.2019 3.54261 65.5226 2.82023 64.9369 2.34691C64.6438 2.11006 64.3759 1.93777 64.1485 1.84493C63.9195 1.75148 63.7424 1.74307 63.6188 1.81512L63.6178 1.81528C63.5071 1.87654 63.4098 1.99845 63.3323 2.17293C63.2552 2.34679 63.1992 2.56876 63.1672 2.82199C63.1032 3.32822 63.1359 3.95412 63.2769 4.56357C63.3483 4.87169 63.4035 5.15248 63.4356 5.39072C63.4675 5.62757 63.4769 5.82707 63.4526 5.97238C63.4404 6.04513 63.4194 6.10927 63.385 6.15711C63.3495 6.20642 63.3002 6.23729 63.2388 6.24552C63.1793 6.25337 63.1127 6.23894 63.0408 6.20667C62.9694 6.1746 62.8892 6.12328 62.799 6.05316C51.8757 -1.1259 36.119 -1.68869 21.3311 3.41688C16.7723 4.99086 12.1083 7.17448 8.2681 9.51694C4.42784 11.8594 1.41864 14.3559 0.15582 16.5543C0.0625618 16.7971 0.0356285 16.9796 0.0562748 17.1119C0.0764934 17.2412 0.14241 17.3252 0.244399 17.3757C0.349548 17.4278 0.497047 17.4464 0.679517 17.4324C0.861097 17.4184 1.07262 17.3727 1.30254 17.302C2.22397 17.0191 3.41405 16.3429 4.09781 15.7608C10.0452 10.6972 13.581 8.8586 20.1568 6.34662C34.9146 0.709142 50.2944 -0.332063 60.7918 7.60105L61.2878 7.9862L61.2936 7.99123C61.5109 8.22669 61.6601 8.42492 61.7206 8.59C61.7513 8.67354 61.7607 8.75312 61.7412 8.82601C61.7215 8.8996 61.6738 8.9602 61.6031 9.00905C61.465 9.10447 61.2286 9.16147 60.8949 9.19439C60.7267 9.21097 60.5315 9.22183 60.3078 9.22706L59.5506 9.22834C59.0581 9.23301 58.6536 9.25394 58.3304 9.29604C58.0065 9.33821 57.7677 9.40085 57.6039 9.48524C57.4416 9.56898 57.3573 9.67194 57.3317 9.79532C57.3056 9.92184 57.3386 10.0812 57.4365 10.282C57.5996 10.6164 57.8102 10.8752 58.1288 11.0701C58.4487 11.2657 58.8809 11.4002 59.491 11.4802C60.5606 11.6204 62.1636 11.5922 64.6355 11.4495L65.749 11.3819C66.6589 11.3113 67.3708 11.2412 67.9234 11.1522Z" fill="#0BA5EC" stroke="#0BA5EC" stroke-width="0.1"/>
</svg>
