<svg width="16" height="16" viewBox="0 0 16 16" fill="none" xmlns="http://www.w3.org/2000/svg">
<path d="M6.00008 5.99996L2.66675 2.66663L6.00008 5.99996ZM2.66675 2.66663V5.33329V2.66663ZM2.66675 2.66663H5.33341H2.66675ZM10.0001 5.99996L13.3334 2.66663L10.0001 5.99996ZM13.3334 2.66663V5.33329V2.66663ZM13.3334 2.66663H10.6667H13.3334ZM6.00008 9.99996L2.66675 13.3333L6.00008 9.99996ZM2.66675 13.3333V10.6666V13.3333ZM2.66675 13.3333H5.33341H2.66675ZM10.0001 9.99996L13.3334 13.3333L10.0001 9.99996ZM13.3334 13.3333V10.6666V13.3333ZM13.3334 13.3333H10.6667H13.3334Z" fill="#0BA5EC" fill-opacity="0.16"/>
<path d="M6.00008 5.99996L2.66675 2.66663M2.66675 2.66663V5.33329M2.66675 2.66663H5.33341M10.0001 5.99996L13.3334 2.66663M13.3334 2.66663V5.33329M13.3334 2.66663H10.6667M6.00008 9.99996L2.66675 13.3333M2.66675 13.3333V10.6666M2.66675 13.3333H5.33341M10.0001 9.99996L13.3334 13.3333M13.3334 13.3333V10.6666M13.3334 13.3333H10.6667" stroke="#0BA5EC" stroke-width="1.5" stroke-linecap="round" stroke-linejoin="round"/>
</svg>
